<?xml version="1.0" standalone="no"?><!DOCTYPE svg PUBLIC "-//W3C//DTD SVG 1.1//EN" "http://www.w3.org/Graphics/SVG/1.1/DTD/svg11.dtd"><svg t="1699517918828" class="icon" viewBox="0 0 1024 1024" version="1.1" xmlns="http://www.w3.org/2000/svg" p-id="20845" xmlns:xlink="http://www.w3.org/1999/xlink" width="32" height="32"><path d="M473.9 720.2c-1.7 0-3.4-0.6-4.7-1.9L297.4 546.5a6.64 6.64 0 0 1 0-9.4l381.7-381.7c1.3-1.2 2.9-1.9 4.7-1.9 1.8 0 3.4 0.7 4.7 1.9l171.8 171.8c2.6 2.6 2.6 6.8 0 9.4L478.6 718.3c-1.3 1.3-3 1.9-4.7 1.9z m1.3-7.9zM304.7 541.8l169.1 169.1 379-379-169-169.2-379.1 379.1z" fill="#2c2c2c" p-id="20846"></path><path d="M556 639.1c-1.1 0-2.2-0.4-3-1.2l-176.3-174c-1.7-1.6-1.7-4.3 0-6 1.6-1.7 4.3-1.7 6 0l176.3 174c1.7 1.6 1.7 4.3 0 6-0.8 0.8-1.9 1.2-3 1.2zM197.1 804.4c-1.2 0-2.4-0.5-3.2-1.4-0.9-1-1.2-2.3-1-3.5L223.6 625c0.2-1.4 1.2-2.6 2.5-3.2l107.5-47.3c2.2-0.9 4.7 0 5.6 2.2s0 4.7-2.2 5.6l-105.4 46.4-29.4 167.1 164.7-7.6 61-115.3c1.1-2.1 3.7-2.9 5.7-1.8 2.1 1.1 2.9 3.7 1.8 5.7l-62.2 117.4c-0.7 1.3-2.1 2.2-3.6 2.3l-172.5 8c0.1-0.1 0.1-0.1 0-0.1z" fill="#2c2c2c" p-id="20847"></path><path d="M306.4 732.4c-15.8 0-28.7-12.9-28.7-28.7 0-15.8 12.9-28.7 28.7-28.7s28.7 12.9 28.7 28.7c0 15.8-12.9 28.7-28.7 28.7z m0-49c-11.1 0-20.2 9.1-20.2 20.2s9.1 20.2 20.2 20.2 20.2-9.1 20.2-20.2-9.1-20.2-20.2-20.2z" fill="#2c2c2c" p-id="20848"></path></svg>